<?xml version="1.0"?>
<svg version="1.1" xmlns="http://www.w3.org/2000/svg" width="300px" height="80px" style=""><path fill="#" d="M44.177,48.084q-1.739,0.705-2.9845,0.705t-1.2455-0.517q0-0.329,1.3865-0.376t1.9975-0.329q1.786-0.94,1.786-2.773q0-0.94-0.517-1.974q-1.504-2.679-7.285-2.679q-3.337,0-6.674,1.0105t-5.593,3.102t-2.256,3.8775q0,2.726,5.405,3.995l5.546,1.034q3.337,0.611,4.982,1.692q2.162,1.316,2.162,3.76q0,0.987-0.329,2.115q-1.504,5.076-7.755,7.755q-5.217,2.303-12.314,2.303q-2.021,0-3.525-0.188q1.504,0.846,3.948,1.457q0.188,0.047,0.188,0.188q0,0.423-0.987,0.423q-1.927,0-4.794-2.303q-3.901-0.611-5.828-2.162q-1.222-0.987-2.256-2.914t-1.034-3.478t0.611-2.585q1.41-2.491,3.572-2.491q1.645,0,1.927,2.773q0.658,5.358,0.893,6.11q0.705,2.303,2.397,3.901q1.974,0.423,4.277,0.423q5.076,0,9.964-2.021t7.05-5.734q0.893-1.457,0.893-2.585q0-2.209-3.901-3.431l-8.272-1.88q-2.538-0.611-4.0655-2.021t-1.5275-3.243q0-2.82,3.525-5.64q2.679-2.162,6.5565-3.3605t7.614-1.1985t6.1805,1.081q3.149,1.457,3.149,4.2535t-2.867,3.9245z M13.909,69.046q-2.726-3.008-3.478-8.225q-0.423-2.961-0.799-2.961t-0.705,0.2115t-0.658,0.9165t-0.329,1.833q0,3.619,2.538,6.204q1.269,1.316,3.431,2.021z M56.96899,49.729q1.41,0,2.397,0.94t0.987,2.632q0,3.713-6.157,9.306q-5.217,4.7-8.413,5.734q-0.517,0-1.363-0.564t-0.846-1.034q0-1.034,2.256-7.003t3.102-6.674q0.188-0.188,0.611-0.188t0.893,0.4465t0.517,1.0575q0,0.047-2.3265,5.452t-2.1855,6.439q2.021-0.611,7.2145-4.935t5.1935-7.755q0-2.068-2.068-3.008q-0.329-0.141-0.329-0.423q0-0.423,0.517-0.423z M71.99348,49.4705q0.6345,0.4465,0.6345,1.0575t-0.5875,1.0575t-1.2925,0.4465t-1.2925-0.517t-0.5875-1.175q0-1.316,1.786-1.316q0.705,0,1.3395,0.4465z M62.14698,68.717q-2.397,0-2.397-3.102q0-2.538,2.773-7.0265t4.465-4.5355q0.47,0,1.0575,0.376t0.5875,0.752q-0.235,0.329-0.564,0.7285t-0.705,0.8695t-1.034,1.3395t-1.269,1.6685q-3.525,4.559-3.525,6.2745t1.175,1.7155q0.987,0,2.679-1.081q3.948-2.444,6.251-5.358q0.846-1.081,1.1515-1.081t0.3055,0.376t-1.081,1.504t-1.7155,1.786t-0.8695,0.8695t-0.8695,0.799t-0.9635,0.8225t-0.94,0.705t-1.081,0.6815t-1.081,0.4935q-0.987,0.423-2.35,0.423z M85.41997,53.066l6.768-0.094q0.141,0.094,0.141,0.141q0,0.423-5.8515,1.175t-6.3215,0.893q-0.893,0.799-3.29,4.7705t-2.397,5.8045q0,1.739,2.397,1.739q1.128,0,2.961-0.705t2.82-1.316q2.632-1.645,5.64-4.841q0.658-0.658,0.893-0.658q0.141,0,0.141,0.282t-0.705,1.128q-2.444,3.008-5.499,4.841q-3.666,2.256-7.003,2.256q-1.457,0-2.3735-0.6345t-0.9165-2.5615t1.692-5.2875t2.585-5.0055q-0.658,0.141-1.128,0.141q-1.363,0-1.363-1.081q0-0.799,1.128-1.128q0.141,0,0.423-0.047l2.726,0q0.846-1.081,1.927-2.491q1.316-1.692,1.786-1.692t1.175,0.376t0.705,0.893t-2.256,3.055q1.222,0.047,3.196,0.047z M92.57196,67.26q1.551,0,3.995-1.645t4.747-4.465q0.564-0.752,0.893-0.752t0.329,0.282t-1.927,2.444q-4.7,5.17-7.849,5.17q-1.551,0-2.632-0.7285t-1.081-2.256t0.799-3.5485q1.363-3.196,4.371-8.037q5.499-8.93,7.802-8.93q0.47,0,0.9635,0.3525t0.5405,0.7755q-1.081,1.457-4.1595,5.593t-4.2535,5.9455t-1.7625,2.7025t-0.8695,1.3865t-0.658,1.2925q-0.799,1.598-0.799,3.008t1.551,1.41z M118.28895,54.147l0.658-0.141q0.517,0,0.987,0.423t0.47,0.658t-2.914,4.5355t-2.914,5.9925q0,0.141,0.047,0.282q0.235,1.081,1.034,1.081q2.444,0,8.93-8.084q0.141-0.188,0.329-0.188t0.188,0.3525t-0.423,0.9165q-6.016,8.037-9.165,8.037q-0.423,0-0.799-0.141q-2.068-0.799-2.068-3.102q0-0.799,0.188-1.598l-2.914,2.82q-2.773,2.444-4.0185,2.444t-2.3735-0.799q-1.269-0.94-1.269-2.491q0-3.431,4.794-8.2015t8.789-4.7705q1.551,0,2.068,1.081q0.141,0.376,0.235,0.6345t0.141,0.2585z M104.23595,65.709q0,1.692,1.175,1.692q2.726,0,7.426-5.969l4.982-6.862q-0.376-0.658-1.222-0.658q-2.867,0-7.614,4.4415t-4.747,7.3555z M131.69194,53.348q1.269,0,1.269,0.987q0,0.282-0.141,0.564q-4.23,5.875-5.076,8.883q10.951-10.951,13.301-10.951q0.235-0.047,0.423-0.047q1.316,0,1.316,1.175q0,0.235-0.094,0.47t-1.88,2.538q-2.068,2.444-3.5015,4.7t-1.4335,3.76t0.658,1.504q2.068,0,7.191-5.687q0.094-0.094,0.329-0.423q0.705-0.846,0.846-0.846t0.141,0.47t-0.658,1.222q-5.828,6.627-8.272,6.627q-2.303,0-2.303-2.538t1.88-5.828l3.008-4.888q-3.196,2.35-5.687,5.1465t-4.5355,5.4285t-2.3735,2.632q-0.705,0-1.1045-0.5875t-0.3995-1.457t0.611-2.3265t1.551-3.525l-2.82,2.961q-1.034,1.034-1.2925,1.034t-0.2585-0.3055t0.376-0.6815q1.739-1.739,3.008-3.337q1.222-1.598,5.029-6.11q0.423-0.564,0.893-0.564z M160.74593,54.147l0.658-0.141q0.517,0,0.987,0.423t0.47,0.658t-2.914,4.5355t-2.914,5.9925q0,0.141,0.047,0.282q0.235,1.081,1.034,1.081q2.444,0,8.93-8.084q0.141-0.188,0.329-0.188t0.188,0.3525t-0.423,0.9165q-6.016,8.037-9.165,8.037q-0.423,0-0.799-0.141q-2.068-0.799-2.068-3.102q0-0.799,0.188-1.598l-2.914,2.82q-2.773,2.444-4.0185,2.444t-2.3735-0.799q-1.269-0.94-1.269-2.491q0-3.431,4.794-8.2015t8.789-4.7705q1.551,0,2.068,1.081q0.141,0.376,0.235,0.6345t0.141,0.2585z M146.69293,65.709q0,1.692,1.175,1.692q2.726,0,7.426-5.969l4.982-6.862q-0.376-0.658-1.222-0.658q-2.867,0-7.614,4.4415t-4.747,7.3555z"/><path fill="#" d="M183.396484375,44.9658203125l-3.8671875,0l0,13.0224609375l-4.4677734375,0l0-13.0224609375l-2.4609375,0l0-2.1533203125l2.4609375-1.201171875l0-1.201171875q0-2.7978515625,1.376953125-4.0869140625t4.4091796875-1.2890625q2.314453125,0,4.1162109375,0.6884765625l-1.142578125,3.28125q-1.34765625-0.4248046875-2.490234375-0.4248046875q-0.9521484375,0-1.376953125,0.56396484375t-0.4248046875,1.44287109375l0,1.025390625l3.8671875,0l0,3.3544921875z M194.80424804687,44.482421875q-1.4208984375,0-2.2265625,0.90087890625t-0.9228515625,2.55615234375l6.26953125,0q-0.029296875-1.6552734375-0.8642578125-2.55615234375t-2.255859375-0.90087890625z M195.43413085937,58.28125q-3.955078125,0-6.181640625-2.1826171875t-2.2265625-6.181640625q0-4.1162109375,2.05810546875-6.36474609375t5.69091796875-2.24853515625q3.4716796875,0,5.4052734375,1.9775390625t1.93359375,5.4638671875l0,2.16796875l-10.5615234375,0q0.0732421875,1.904296875,1.1279296875,2.9736328125t2.958984375,1.0693359375q1.4794921875,0,2.7978515625-0.3076171875t2.75390625-0.9814453125l0,3.45703125q-1.171875,0.5859375-2.5048828125,0.87158203125t-3.251953125,0.28564453125z M212.99423828125,58.28125q-2.8857421875,0-4.53369140625-2.2412109375t-1.64794921875-6.2109375q0-4.0283203125,1.67724609375-6.27685546875t4.62158203125-2.24853515625q3.0908203125,0,4.716796875,2.40234375l0.146484375,0q-0.3369140625-1.8310546875-0.3369140625-3.2666015625l0-5.244140625l4.482421875,0l0,22.79296875l-3.427734375,0l-0.8642578125-2.1240234375l-0.1904296875,0q-1.5234375,2.4169921875-4.6435546875,2.4169921875z M214.56162109375,54.7216796875q1.7138671875,0,2.51220703125-0.99609375t0.87158203125-3.3837890625l0-0.4833984375q0-2.63671875-0.81298828125-3.779296875t-2.64404296875-1.142578125q-1.494140625,0-2.32177734375,1.26708984375t-0.82763671875,3.68408203125t0.8349609375,3.62548828125t2.3876953125,1.20849609375z M228.66469726562,37.3779296875q0-2.1826171875,2.431640625-2.1826171875t2.431640625,2.1826171875q0,1.0400390625-0.60791015625,1.61865234375t-1.82373046875,0.57861328125q-2.431640625,0-2.431640625-2.197265625z M233.32290039062,57.98828125l-4.4677734375,0l0-16.376953125l4.4677734375,0l0,16.376953125z M250.4728515625,57.98828125l-0.8642578125-2.2265625l-0.1171875,0q-1.1279296875,1.4208984375-2.32177734375,1.97021484375t-3.11279296875,0.54931640625q-2.3583984375,0-3.71337890625-1.34765625t-1.35498046875-3.837890625q0-2.607421875,1.82373046875-3.84521484375t5.50048828125-1.36962890625l2.841796875-0.087890625l0-0.7177734375q0-2.490234375-2.548828125-2.490234375q-1.962890625,0-4.6142578125,1.1865234375l-1.4794921875-3.017578125q2.8271484375-1.4794921875,6.26953125-1.4794921875q3.2958984375,0,5.0537109375,1.435546875t1.7578125,4.365234375l0,10.9130859375l-3.1201171875,0z M249.1544921875,50.400390625l-1.728515625,0.05859375q-1.9482421875,0.05859375-2.900390625,0.703125t-0.9521484375,1.962890625q0,1.8896484375,2.16796875,1.8896484375q1.552734375,0,2.48291015625-0.8935546875t0.93017578125-2.373046875l0-1.34765625z M260.06420898438,37.3779296875q0-2.1826171875,2.431640625-2.1826171875t2.431640625,2.1826171875q0,1.0400390625-0.60791015625,1.61865234375t-1.82373046875,0.57861328125q-2.431640625,0-2.431640625-2.197265625z M264.72241210938,57.98828125l-4.4677734375,0l0-16.376953125l4.4677734375,0l0,16.376953125z"/></svg>
